<svg xmlns="http://www.w3.org/2000/svg">
    <symbol viewBox="0 0 47 47" id="garniture" fill="none">
        <circle cx="23.5" cy="23.5" r="23.5" fill="#FFA155" fill-opacity="0.1"/>
        <path d="M24 12C18.1845 12 13.4531 16.7313 13.4531 22.5469C13.4531 23.1914 13.4531 28.1769 13.4531 28.2656C13.4531 29.4287 14.3994 30.375 15.5625 30.375H16.3866C16.6768 31.1933 17.4584 31.7812 18.375 31.7812C19.5381 31.7812 20.4844 30.835 20.4844 29.6719V23.9531C20.4844 22.79 19.5381 21.8438 18.375 21.8438C17.4584 21.8438 16.6768 22.4317 16.3866 23.25H15.5625C15.316 23.25 15.0795 23.2929 14.8594 23.3709V22.5469C14.8594 17.5067 18.9599 13.4062 24 13.4062C29.0401 13.4062 33.1406 17.5067 33.1406 22.5469V23.3709C32.9205 23.2929 32.684 23.25 32.4375 23.25H31.6134C31.3232 22.4317 30.5416 21.8438 29.625 21.8438C28.4619 21.8438 27.5156 22.79 27.5156 23.9531V29.6719C27.5156 30.835 28.4619 31.7812 29.625 31.7812C29.8379 31.7812 30.0434 31.7493 30.2372 31.6904C29.9742 32.5558 29.169 33.1875 28.2188 33.1875H25.9884C25.6982 32.3692 24.9166 31.7812 24 31.7812C22.8369 31.7812 21.8906 32.7275 21.8906 33.8906C21.8906 35.0537 22.8369 36 24 36C24.9166 36 25.6982 35.4121 25.9884 34.5938H28.2188C30.1573 34.5938 31.7344 33.0166 31.7344 31.0781V30.375H32.4375C33.6006 30.375 34.5469 29.4287 34.5469 28.2656C34.5469 28.1782 34.5469 23.1908 34.5469 22.5469C34.5469 16.7313 29.8155 12 24 12ZM17.6719 23.9531C17.6719 23.5654 17.9873 23.25 18.375 23.25C18.7627 23.25 19.0781 23.5654 19.0781 23.9531V29.6719C19.0781 30.0596 18.7627 30.375 18.375 30.375C17.9873 30.375 17.6719 30.0596 17.6719 29.6719V23.9531ZM15.5625 24.6562H16.2656V28.9688H15.5625C15.1748 28.9688 14.8594 28.6533 14.8594 28.2656V25.3594C14.8594 24.9717 15.1748 24.6562 15.5625 24.6562ZM24 34.5938C23.6123 34.5938 23.2969 34.2783 23.2969 33.8906C23.2969 33.5029 23.6123 33.1875 24 33.1875C24.3877 33.1875 24.7031 33.5029 24.7031 33.8906C24.7031 34.2783 24.3877 34.5938 24 34.5938ZM30.3281 29.6719C30.3281 30.0596 30.0127 30.375 29.625 30.375C29.2373 30.375 28.9219 30.0596 28.9219 29.6719V23.9531C28.9219 23.5654 29.2373 23.25 29.625 23.25C30.0127 23.25 30.3281 23.5654 30.3281 23.9531V29.6719ZM33.1406 28.2656C33.1406 28.6533 32.8252 28.9688 32.4375 28.9688H31.7344V24.6562H32.4375C32.8252 24.6562 33.1406 24.9717 33.1406 25.3594V28.2656Z" fill="#FFA155"/>
        <path d="M20 18C22.1538 15.643 25.2308 15.3062 28 17.3265" stroke="#454DFD" stroke-width="1.5"/>
    </symbol>
    <symbol viewBox="0 0 47 47" id="settings" fill="none">
        <circle cx="23.5" cy="23.5" r="23.5" fill="#FFA155" fill-opacity="0.1"/>
        <g clip-path="url(#clip0_1_2023)">
        <path d="M33.7289 26.6041C33.7289 26.6041 33.7289 26.6041 33.7289 26.6041L33.2056 26.302C31.4749 25.3028 31.4705 22.6999 33.2056 21.6981L33.729 21.396C34.4005 21.0082 34.6314 20.1465 34.2437 19.475L32.5406 16.5251C32.1529 15.8536 31.2912 15.6229 30.6196 16.0104L30.0986 16.3112C28.3796 17.3035 26.1093 16.0278 26.1093 14.0131V13.4062C26.1093 12.6308 25.4784 12 24.703 12H21.2968C20.5213 12 19.8905 12.6308 19.8905 13.4062V14.013C19.8905 16.0283 17.6197 17.3032 15.9012 16.3111L15.3801 16.0103C14.7071 15.6216 13.8479 15.8519 13.4592 16.525L11.7561 19.4749C11.3684 20.1464 11.5992 21.0081 12.2708 21.3959L12.7941 21.698C14.5247 22.6972 14.5292 25.3001 12.7941 26.3019L12.2707 26.604C11.5992 26.9917 11.3683 27.8535 11.756 28.5249L13.4591 31.4749C13.8468 32.1464 14.7085 32.3774 15.3801 31.9896L15.9011 31.6887C17.6209 30.696 19.8904 31.9747 19.8904 33.9869V34.5938C19.8904 35.3692 20.5213 36 21.2967 36H24.7029C25.4783 36 26.1092 35.3692 26.1092 34.5938V33.987C26.1092 31.9719 28.3798 30.6967 30.0985 31.6889L30.6196 31.9897C31.2911 32.3774 32.1528 32.1465 32.5405 31.475L34.2436 28.5251C34.6323 27.852 34.4021 26.9927 33.7289 26.6041ZM31.3227 30.7718L30.8016 30.471C28.15 28.9401 24.7029 30.8845 24.7029 33.987V34.5938H21.2967V33.987C21.2967 30.8807 17.8461 28.942 15.198 30.471L14.6769 30.7718L12.9738 27.8219L13.4971 27.5198C14.7358 26.8046 15.5031 25.4627 15.4999 24.0169V24V23.9823C15.5032 22.5374 14.7358 21.1954 13.4971 20.4803L12.9738 20.1781L14.6769 17.2282L15.198 17.529C17.8495 19.06 21.2967 17.1155 21.2967 14.013V13.4062H24.7029V14.013C24.7029 17.0867 28.1252 19.0741 30.8016 17.529L31.3227 17.2282L33.0258 20.1781L32.5025 20.4802C29.8303 22.023 29.8341 25.9792 32.5025 27.5198L33.0258 27.8219L31.3227 30.7718Z" fill="#FFA155"/>
        <path d="M23 17.9708C19.6754 17.9708 16.9707 20.6755 16.9707 24C16.9707 27.3246 19.6754 30.0293 23 30.0293C26.3246 30.0293 29.0292 27.3246 29.0292 24C29.0292 20.6755 26.3246 17.9708 23 17.9708ZM23 28.623C20.4508 28.623 18.377 26.5492 18.377 24C18.377 21.4509 20.4508 19.377 23 19.377C25.5492 19.377 27.623 21.4509 27.623 24C27.623 26.5492 25.5492 28.623 23 28.623Z" fill="#444CFC"/>
        <path d="M24.6241 22.3651L22.2433 24.1322L21.4693 23.3076C21.2035 23.0243 20.7585 23.0102 20.4754 23.276C20.1922 23.5417 20.1781 23.9867 20.4439 24.2699L21.6466 25.5514C21.8911 25.812 22.2919 25.8474 22.5783 25.6348L25.4621 23.4943C25.7739 23.2628 25.8391 22.8224 25.6076 22.5106C25.3763 22.1989 24.9359 22.1338 24.6241 22.3651Z" fill="#444CFC"/>
        </g>
        <defs>
        <clipPath id="clip0_1_2023">
        <rect width="24" height="24" fill="white" transform="translate(11 12)"/>
        </clipPath>
        </defs>
    </symbol>
    <symbol viewBox="0 0 47 47" id="development" fill="none">
        <circle cx="23.5" cy="23.5" r="23.5" fill="#FFA155" fill-opacity="0.1"/>
        <g clip-path="url(#clip0_1_2004)">
        <path d="M14.0215 12.0449H32.9785C34.0932 12.0449 35 12.9518 35 14.0664V32.9336C35 34.0482 34.0932 34.9551 32.9785 34.9551H14.0215C12.9068 34.9551 12 34.0482 12 32.9336V14.0664C12 12.9518 12.9068 12.0449 14.0215 12.0449ZM32.9785 13.3926H14.0215C13.6499 13.3926 13.3477 13.6949 13.3477 14.0664V17.4355H33.6523V14.0664C33.6523 13.6949 33.3501 13.3926 32.9785 13.3926ZM14.0215 33.6074H32.9785C33.3501 33.6074 33.6523 33.3051 33.6523 32.9336V18.7832H13.3477V32.9336C13.3477 33.3051 13.6499 33.6074 14.0215 33.6074Z" fill="#FFA155"/>
        <path d="M21.2129 20.8592C21.5549 20.7126 21.9511 20.871 22.0977 21.2131L26.1406 30.6467C26.2873 30.9887 26.1288 31.3849 25.7868 31.5314C25.4446 31.6781 25.0485 31.5195 24.902 31.1775L20.859 21.744C20.7124 21.4019 20.8709 21.0058 21.2129 20.8592Z" fill="#444CFC"/>
        <path d="M27.017 23.0791C27.2495 22.7885 27.6736 22.7414 27.9641 22.9738L31.3332 25.6692C31.6701 25.9386 31.6703 26.4519 31.3332 26.7215L27.9641 29.4168C27.6735 29.6493 27.2494 29.6022 27.017 29.3116C26.7845 29.021 26.8316 28.5969 27.1222 28.3645L29.8336 26.1953L27.1222 24.0262C26.8316 23.7937 26.7845 23.3697 27.017 23.0791Z" fill="#444CFC"/>
        <path d="M15.6669 25.6691L19.0361 22.9738C19.3267 22.7413 19.7507 22.7884 19.9832 23.079C20.2156 23.3696 20.1686 23.7937 19.8779 24.0261L17.1665 26.1953L19.8779 28.3644C20.1686 28.5969 20.2156 29.0209 19.9832 29.3115C19.7504 29.6024 19.3263 29.649 19.0361 29.4167L15.6669 26.7214C15.3301 26.452 15.3299 25.9387 15.6669 25.6691Z" fill="#444CFC"/>
        <path d="M31.5859 16.0879C31.2138 16.0879 30.9121 15.7862 30.9121 15.4141C30.9121 15.0419 31.2138 14.7402 31.5859 14.7402C31.9581 14.7402 32.2598 15.0419 32.2598 15.4141C32.2598 15.7862 31.9581 16.0879 31.5859 16.0879Z" fill="#FFA155"/>
        <path d="M28.8906 16.0879C28.5185 16.0879 28.2168 15.7862 28.2168 15.4141C28.2168 15.0419 28.5185 14.7402 28.8906 14.7402C29.2628 14.7402 29.5645 15.0419 29.5645 15.4141C29.5645 15.7862 29.2628 16.0879 28.8906 16.0879Z" fill="#FFA155"/>
        <path d="M26.1953 16.0879C25.8232 16.0879 25.5215 15.7862 25.5215 15.4141C25.5215 15.0419 25.8232 14.7402 26.1953 14.7402C26.5675 14.7402 26.8691 15.0419 26.8691 15.4141C26.8691 15.7862 26.5675 16.0879 26.1953 16.0879Z" fill="#FFA155"/>
        <path d="M19.457 16.0879H15.4141C15.0419 16.0879 14.7402 15.7862 14.7402 15.4141C14.7402 15.0419 15.0419 14.7402 15.4141 14.7402H19.457C19.8292 14.7402 20.1309 15.0419 20.1309 15.4141C20.1309 15.7862 19.8292 16.0879 19.457 16.0879Z" fill="#FFA155"/>
        </g>
        <defs>
        <clipPath id="clip0_1_2004">
        <rect width="23" height="23" fill="white" transform="matrix(-1 0 0 1 35 12)"/>
        </clipPath>
        </defs>
    </symbol>
    <symbol viewBox="0 0 47 47" id="design">
        <circle opacity="0.5" cx="23.5" cy="23.5" r="23.5" fill="#FFE6D2"/>
        <g clip-path="url(#clip0_1_2103)">
        <path d="M34.9714 12.7918C34.9194 11.8384 34.1612 11.0803 33.2079 11.0283C31.2842 10.9232 27.52 11.0254 23.9205 12.8872C22.0856 13.8363 20.145 15.4455 18.5963 17.3021C18.5772 17.325 18.5586 17.348 18.5397 17.3709L15.025 17.6424C14.4465 17.6871 13.9312 17.9904 13.6112 18.4743L11.2134 22.1011C10.9707 22.4681 10.9321 22.9275 11.1101 23.3298C11.2881 23.7322 11.6539 24.0126 12.0887 24.0799L15.0499 24.5386C15.0394 24.5961 15.0289 24.6536 15.0193 24.7112C14.9207 25.3009 15.1161 25.9072 15.542 26.333L19.6666 30.4577C20.0197 30.8108 20.4969 31.0055 20.9858 31.0055C21.0865 31.0055 21.1877 30.9972 21.2885 30.9804C21.3461 30.9707 21.4036 30.9602 21.4611 30.9498L21.9198 33.911C21.9871 34.3457 22.2675 34.7116 22.6698 34.8896C22.8372 34.9636 23.0143 35.0002 23.1907 35.0002C23.4383 35.0002 23.6842 34.9281 23.8985 34.7864L27.5254 32.3885C28.0093 32.0685 28.3125 31.5532 28.3571 30.9747L28.6286 27.46C28.6516 27.4411 28.6746 27.4225 28.6975 27.4035C30.5542 25.8548 32.1634 23.9141 33.1125 22.0792C34.9743 18.4796 35.0764 14.7153 34.9714 12.7918ZM26.7498 31.2154L23.2805 33.5091L22.8335 30.6233C24.2998 30.1921 25.7502 29.5017 27.1321 28.5767L26.9552 30.8663C26.9442 31.0091 26.8693 31.1364 26.7498 31.2154ZM20.661 29.4633L16.5363 25.3387C16.4311 25.2334 16.3824 25.0855 16.4063 24.943C16.5289 24.2098 16.7194 23.5118 16.9553 22.8542L23.1441 29.043C22.3544 29.3259 21.647 29.4946 21.0566 29.5934C20.9139 29.6171 20.7662 29.5686 20.661 29.4633ZM15.1333 19.0445L17.4229 18.8676C16.4979 20.2494 15.8074 21.6999 15.3763 23.1661L12.4905 22.7192L14.7843 19.2499C14.8633 19.1304 14.9906 19.0555 15.1333 19.0445ZM27.7969 26.3235C26.6609 27.271 25.5583 27.9563 24.5419 28.4522L17.5472 21.4575C18.1968 20.1307 18.9896 19.0259 19.6761 18.2029C21.1093 16.4847 22.8919 15.0024 24.5666 14.1362C27.8701 12.4275 31.3506 12.3354 33.1313 12.4324C33.367 12.4452 33.5545 12.6327 33.5673 12.8684C33.6644 14.6491 33.5722 18.1296 31.8634 21.4331C30.9972 23.1078 29.515 24.8903 27.7969 26.3235Z" fill="#FFA155"/>
        <path d="M27.4398 22.0739C28.3399 22.0738 29.2404 21.7311 29.9257 21.0458C30.5897 20.3819 30.9553 19.499 30.9553 18.56C30.9553 17.621 30.5897 16.7382 29.9257 16.0742C28.555 14.7034 26.3246 14.7035 24.954 16.0742C24.29 16.7382 23.9243 17.621 23.9243 18.56C23.9243 19.499 24.29 20.3819 24.954 21.0458C25.6394 21.7312 26.5394 22.0739 27.4398 22.0739ZM25.9483 17.0685C26.3595 16.6573 26.8996 16.4517 27.4398 16.4517C27.9799 16.4517 28.5201 16.6573 28.9313 17.0685C29.3297 17.4669 29.549 17.9966 29.549 18.56C29.549 19.1234 29.3297 19.6531 28.9313 20.0515C28.1089 20.8739 26.7707 20.8739 25.9482 20.0515C25.5498 19.6531 25.3304 19.1234 25.3304 18.56C25.3304 17.9966 25.5499 17.4669 25.9483 17.0685Z" fill="#444CFC"/>
        <path d="M11.7173 30.7783C11.8972 30.7783 12.0772 30.7097 12.2144 30.5723L14.51 28.2767C14.7846 28.0021 14.7846 27.557 14.51 27.2824C14.2355 27.0078 13.7903 27.0078 13.5157 27.2824L11.2201 29.578C10.9455 29.8526 10.9455 30.2977 11.2201 30.5723C11.3574 30.7096 11.5373 30.7783 11.7173 30.7783Z" fill="#FFA155"/>
        <path d="M16.6138 29.3862C16.3392 29.1116 15.894 29.1116 15.6194 29.3862L11.2059 33.7998C10.9314 34.0744 10.9314 34.5195 11.2059 34.7941C11.3432 34.9314 11.5231 35 11.7031 35C11.8831 35 12.063 34.9314 12.2003 34.7941L16.6137 30.3806C16.8884 30.106 16.8884 29.6608 16.6138 29.3862Z" fill="#FFA155"/>
        <path d="M17.7232 31.49L15.4276 33.7856C15.153 34.0602 15.153 34.5054 15.4276 34.78C15.5649 34.9173 15.7449 34.9859 15.9248 34.9859C16.1047 34.9859 16.2847 34.9173 16.4219 34.78L18.7175 32.4844C18.9921 32.2098 18.9921 31.7646 18.7175 31.49C18.443 31.2154 17.9978 31.2154 17.7232 31.49Z" fill="#FFA155"/>
        </g>
        <defs>
        <clipPath id="clip0_1_2103">
        <rect width="24" height="24" fill="white" transform="translate(11 11)"/>
        </clipPath>
        </defs>
    </symbol>
    <symbol viewBox="0 0 47 47" id="support">
        <circle opacity="0.5" cx="23.5" cy="23.5" r="23.5" fill="#FFE6D2"/>
        <path fill-rule="evenodd" clip-rule="evenodd" d="M17.9635 17.9956H16.9965C16.9754 17.9956 16.956 18.0152 16.956 18.036V20.7357C16.956 20.7566 16.9754 20.7759 16.9965 20.7759H17.9635V17.9956ZM29.326 16.7868H30.2929C30.9812 16.7868 31.542 17.3477 31.542 18.036V20.7356C31.542 21.4238 30.9812 21.9846 30.2929 21.9846H28.6224C28.1247 22.7756 27.422 23.4666 26.6666 24.0111C26.6666 24.9805 27.369 25.7721 28.3589 25.7721C31.2501 25.7721 33.597 26.5344 33.597 30.0431C33.597 30.3769 33.3264 30.6475 32.9925 30.6475C32.6589 30.6475 32.3881 30.3769 32.3881 30.0431C32.3881 27.2287 30.5224 26.9808 28.3589 26.9808C27.8791 26.9808 27.4261 26.8634 27.0269 26.656L23.7987 28.9935C23.5925 29.1495 23.3007 29.1604 23.0804 29.0007L20.0054 26.774C19.6729 26.9074 19.31 26.9808 18.9304 26.9808C16.7671 26.9808 14.9013 27.2287 14.9013 30.0431C14.9013 30.3769 14.6306 30.6475 14.2969 30.6475C13.9632 30.6475 13.6924 30.3769 13.6924 30.0431C13.6924 26.5344 16.0394 25.7721 18.9304 25.7721C19.8194 25.7721 20.5533 25.0787 20.6181 24.2055C19.7563 23.6396 18.9508 22.8803 18.432 21.9846H16.9965C16.3082 21.9846 15.7474 21.4238 15.7474 20.7356V18.036C15.7474 17.3477 16.3082 16.7868 16.9965 16.7868H17.9635V15.9245C17.9635 13.0185 20.3108 10.6221 23.2105 10.6221H24.0789C26.9784 10.6221 29.326 13.0188 29.326 15.9247V16.7868ZM28.1172 20.7764V16.8584C26.4766 17.0694 24.8272 16.6059 23.5414 15.5748C22.3473 16.5295 20.7974 17.0361 19.1724 16.8813V20.7C19.435 21.5392 20.0726 22.2797 20.8073 22.8567C21.8091 23.6435 22.9471 24.1083 23.5704 24.1083C24.2023 24.1083 25.4824 23.5195 26.5562 22.5583C26.7568 22.379 26.9481 22.1871 27.1246 21.9849H25.2563C25.0727 22.2294 24.7801 22.3877 24.4505 22.3877C23.8941 22.3877 23.4433 21.9366 23.4433 21.3805C23.4433 20.824 23.8941 20.373 24.4505 20.373C24.7801 20.373 25.0727 20.5313 25.2563 20.776C26.0581 20.7759 27.3942 20.7764 28.1172 20.7764ZM30.2929 17.9956H29.326V20.7759H30.2929C30.3139 20.7759 30.3333 20.7566 30.3333 20.7356V18.036C30.3333 18.0152 30.3139 17.9956 30.2929 17.9956ZM28.1074 15.6418C28.0019 14.0874 27.0325 12.7578 25.6731 12.1632C25.458 13.1316 25.0158 14.0013 24.4116 14.7236C25.4648 15.5149 26.7968 15.8493 28.1074 15.6418ZM24.5059 11.8538C24.3656 11.8388 24.2232 11.831 24.0789 11.831H23.2105C21.0551 11.831 19.3106 13.5438 19.1802 15.6696C21.6798 15.9603 23.9878 14.291 24.5059 11.8538ZM21.0597 26.0473L23.4346 27.7669L26.0696 25.8589C25.8102 25.5256 25.6216 25.1347 25.5268 24.709C24.7638 25.0994 24.0476 25.3168 23.5704 25.3168C23.0989 25.3168 22.4375 25.142 21.7349 24.8226C21.6117 25.2861 21.3763 25.7049 21.0597 26.0473Z" fill="#FFA155"/>
        <path d="M14.6255 32.5214C19.0369 36.004 25.0735 38.3258 32.7355 32.5214" stroke="#444CFC" stroke-width="1.5" stroke-linecap="round"/>
    </symbol>

</svg>

