<?xml version="1.0" standalone="no"?>
<!DOCTYPE svg PUBLIC "-//W3C//DTD SVG 20010904//EN"
 "http://www.w3.org/TR/2001/REC-SVG-20010904/DTD/svg10.dtd">
<svg version="1.0" xmlns="http://www.w3.org/2000/svg"
 width="200.000000pt" height="200.000000pt" viewBox="0 0 200.000000 200.000000"
 preserveAspectRatio="xMidYMid meet">
<metadata>
Created by potrace 1.14, written by Peter Selinger 2001-2017
</metadata>
<g transform="translate(0.000000,200.000000) scale(0.100000,-0.100000)"
fill="#000000" stroke="none">
<path d="M0 1000 l0 -1000 1000 0 1000 0 0 1000 0 1000 -1000 0 -1000 0 0
-1000z m948 458 l-3 -63 -37 -3 c-20 -2 -41 -8 -46 -15 -6 -7 -12 -85 -14
-174 -2 -133 -6 -165 -19 -178 -15 -15 -15 -19 2 -53 16 -31 19 -60 19 -188
l0 -152 31 -11 c18 -6 40 -11 50 -11 17 0 19 -8 19 -66 l0 -67 -72 7 c-79 7
-120 26 -152 69 -19 26 -21 44 -24 195 -2 95 -8 172 -14 180 -6 6 -21 12 -34
12 -23 0 -24 3 -24 60 0 50 3 60 18 60 44 1 47 12 52 187 5 135 9 175 23 201
25 46 84 71 165 72 l63 0 -3 -62z m420 -135 l-3 -68 -58 -5 c-64 -6 -77 -17
-77 -67 l0 -33 55 0 55 0 0 -60 0 -60 -55 0 -55 0 0 -210 0 -210 -90 0 -90 0
0 210 0 210 -40 0 -40 0 0 60 0 60 40 0 40 0 0 53 c0 76 32 136 90 165 36 18
61 22 138 22 l93 0 -3 -67z"/>
</g>
</svg>
